<svg 
    id="Layer_1" 
    width="30px" height="20px"
    style="enable-background:new 0 0 512 512;" 
    version="1.1" viewBox="0 0 512 512" 
    xml:space="preserve" xmlns="http://www.w3.org/2000/svg" 
    xmlns:xlink="http://www.w3.org/1999/xlink">
    <style type="text/css">
    .st0{fill:currentColor;}
    .st1{fill:currentColor;}
    </style>
    <g>
    <path class="st0" d="M476.5,238v-24.7c0-9.2-7.4-16.6-16.6-16.6h-38.4c-4.1-16.6-10.7-32.3-19.3-46.6l27.2-27.2   c6.5-6.5,6.5-17,0-23.5l-34.9-34.9c-6.5-6.5-17-6.5-23.5,0l-27.2,27.2c-14.3-8.6-29.9-15.2-46.6-19.3V34.1   c0-9.2-7.4-16.6-16.6-16.6h-49.3c-9.2,0-16.6,7.4-16.6,16.6v38.4c-16.6,4.1-32.3,10.7-46.6,19.3L141,64.7c-6.5-6.5-17-6.5-23.5,0   L82.6,99.5c-6.5,6.5-6.5,17,0,23.5l27.2,27.2c-8.6,14.3-15.2,30-19.3,46.6H52.1c-9.2,0-16.6,7.4-16.6,16.6V238h107.1   c0-62.7,50.8-113.5,113.5-113.5S369.5,175.4,369.5,238H476.5z"/><path class="st1" d="M325.7,238c0-38.5-31.2-69.7-69.7-69.7c-38.5,0-69.7,31.2-69.7,69.7c0,38.5,31.2,69.7,69.7,69.7   C294.5,307.7,325.7,276.5,325.7,238z"/><path class="st1" d="M151,274.6c0-3.9-3.1-7-7-7H83.1c-3.9,0-7,3.1-7,7v100.9H47.5c-3.9,0-7,3.1-7,7v41.1c2.3-0.4,4.6-0.6,7-0.6   c2.4,0,4.7,0.2,7,0.6v-34.1h28.6c3.9,0,7-3.1,7-7V281.6H144C147.9,281.6,151,278.5,151,274.6z"/><circle class="st1" cx="47.5" cy="465.7" r="28.7"/><circle class="st1" cx="128.5" cy="465.7" r="28.7"/><path class="st1" d="M163,310.1h-34.4c-3.9,0-7,3.1-7,7v106.5c2.3-0.4,4.6-0.6,7-0.6s4.7,0.2,7,0.6v-99.5H163c3.9,0,7-3.1,7-7   C170,313.2,166.8,310.1,163,310.1z"/><circle class="st1" cx="214.1" cy="465.7" r="28.7"/><path class="st1" d="M221.1,423.6v-94.2c0-3.9-3.1-7-7-7c-3.9,0-7,3.1-7,7v94.2c2.3-0.4,4.6-0.6,7-0.6   C216.5,423,218.8,423.2,221.1,423.6z"/><path class="st1" d="M457.5,423.6c2.3-0.4,4.6-0.6,7-0.6c2.4,0,4.7,0.2,7,0.6v-41.1c0-3.9-3.1-7-7-7h-28.6V274.6c0-3.9-3.1-7-7-7   H368c-3.9,0-7,3.1-7,7c0,3.9,3.1,7,7,7h53.9v100.9c0,3.9,3.1,7,7,7h28.6V423.6z"/><circle class="st1" cx="464.5" cy="465.7" r="28.7"/><circle class="st1" cx="383.5" cy="465.7" r="28.7"/><path class="st1" d="M376.5,423.6c2.3-0.4,4.6-0.6,7-0.6s4.7,0.2,7,0.6V317.1c0-3.9-3.1-7-7-7H349c-3.9,0-7,3.1-7,7   c0,3.9,3.1,7,7,7h27.4V423.6z"/><circle class="st1" cx="297.9" cy="465.7" r="28.7"/>
    <path class="st1" d="M290.9,329.4v94.2c2.3-0.4,4.6-0.6,7-0.6c2.4,0,4.7,0.2,7,0.6v-94.2c0-3.9-3.1-7-7-7   C294.1,322.4,290.9,325.6,290.9,329.4z"/>
    </g>
</svg>